<?xml version="1.0" encoding="utf-8"?>
<!-- Generator: Adobe Illustrator 21.1.0, SVG Export Plug-In . SVG Version: 6.00 Build 0)  -->
<svg version="1.1" id="Layer_1" xmlns="http://www.w3.org/2000/svg" xmlns:xlink="http://www.w3.org/1999/xlink" x="0px" y="0px"
	 viewBox="0 0 185 149" style="enable-background:new 0 0 185 149;" xml:space="preserve">
<style type="text/css">
	.st0{fill:#5E83FC;}
	.st1{opacity:0.1;}
	.st2{fill:#7EACF1;}
	.st3{fill:#C5C2C2;}
	.st4{fill:#427CCC;}
	.st5{fill:#F17187;}
	.st6{fill:#06529C;}
	.st7{fill:#EAECEC;}
	.st8{fill:#C5C6C7;}
	.st9{fill:#9B9C9E;}
</style>
<path class="st0" d="M163.3,106.2L51.6,125.8c-2.3,0.4-4.5-1.2-5-3.6L34.3,50.9c-0.4-2.4,1.1-4.7,3.5-5.1l111.7-19.6
	c2.3-0.4,4.5,1.2,5,3.6l12.4,71.3C167.2,103.5,165.6,105.8,163.3,106.2z"/>
<path class="st1" d="M51.9,124.3L161.7,105c2.3-0.4,3.9-2.7,3.5-5.1l-7-40.6C134.3,97.4,77.8,117,51.9,124.3z"/>
<path class="st2" d="M67.7,85.5l-20,3.5c-0.3,0-0.5-0.1-0.6-0.4l-2.6-15.1c0-0.3,0.1-0.5,0.4-0.6l20-3.5c0.3,0,0.5,0.1,0.6,0.4
	l2.6,15.1C68.1,85.2,67.9,85.5,67.7,85.5z"/>
<path d="M67.7,82.5L66.5,76c-4.2,5.9-13.2,10-18.7,12.1c0.6,0.5,1.4,0.7,2.2,0.5l15.4-2.7C66.9,85.6,67.9,84.1,67.7,82.5z"/>
<polygon class="st3" points="73.8,98.2 49.5,102.5 48.1,94.5 72.4,90.3 "/>
<polygon class="st3" points="100.9,93.4 76.6,97.7 75.2,89.8 99.5,85.5 "/>
<polygon class="st3" points="127.9,88.7 103.7,93 102.3,85 126.6,80.8 "/>
<polygon class="st3" points="155,83.9 130.7,88.2 129.4,80.3 153.7,76 "/>
<path class="st4" d="M141.1,35.6c-0.2-1,0.2-2,0.8-2.7c-0.5-0.3-1.2-0.4-1.8-0.2c-0.6,0.1-1.2,0.4-1.6,0.8c0.9,0.4,1.5,1.2,1.7,2.3
	c0.2,1-0.2,2-0.8,2.7c0.5,0.3,1.2,0.4,1.8,0.2c0.6-0.1,1.2-0.4,1.6-0.8C141.9,37.5,141.3,36.6,141.1,35.6z"/>
<path class="st5" d="M140.3,35.8c-0.2-1-0.8-1.9-1.7-2.3c-0.5-0.3-1.2-0.4-1.8-0.2c-1.6,0.3-2.7,1.9-2.4,3.6
	c0.3,1.7,1.9,2.8,3.5,2.5c0.6-0.1,1.2-0.4,1.6-0.8C140.1,37.8,140.5,36.8,140.3,35.8z"/>
<path class="st6" d="M147,34.6c-0.3-1.7-1.9-2.8-3.5-2.5c-0.6,0.1-1.2,0.4-1.6,0.8c-0.7,0.7-1,1.7-0.8,2.7c0.2,1,0.8,1.9,1.7,2.3
	c0.5,0.3,1.2,0.4,1.8,0.2C146.2,37.8,147.3,36.3,147,34.6z"/>
<polygon class="st7" points="156.4,92 105.1,101 104.6,98.6 156,89.6 "/>
<polygon class="st8" points="157.3,97.1 118.1,104 117.7,101.6 156.9,94.7 "/>
<path class="st7" d="M65.9,72.5l-0.1-0.6l-10.2,1.8l-0.5-2.6l-0.6,0.1l0.5,2.6l-10.2,1.8l0.1,0.6l10.2-1.8l0.4,2.5l-10.2,1.8
	l0.1,0.6l10.2-1.8l0,0l0.3-0.1c0.1,0,2.5-0.6,3,1.3c0,0,0.2,0.5-0.2,1.1c-0.3,0.6-1.1,1-2.2,1.2l-10.6,1.9l0.1,0.6l10.3-1.8l0.4,2.5
	l-10.3,1.8l0.1,0.6L57,84.7l0.5,2.6l0.6-0.1l-0.5-2.6l10.2-1.8l-0.1-0.6L57.4,84L57,81.5c1.1-0.3,1.9-0.7,2.3-1.4
	c0.3-0.5,0.3-1,0.3-1.3l7.2-1.3L66.7,77l-7.3,1.3c-0.6-1.5-2.3-1.6-3.3-1.4l-0.4-2.5L65.9,72.5z"/>
<path class="st8" d="M156.4,92l-0.4-2.4l-37.5,6.6c-2,1.2-4,2.4-6,3.5L156.4,92z"/>
<path class="st9" d="M153.7,76l-11,1.9c-3.8,3.6-7.8,6.9-12,10l0,0.2l24.3-4.3L153.7,76z"/>
<path class="st1" d="M35.8,51.4l2.2,12.4c-0.6-5.3-0.1-17.2,15.3-19.9l-14,2.5C36.9,46.7,35.4,49,35.8,51.4z"/>
<path d="M140.3,35.8c-0.2-1-0.8-1.9-1.7-2.3c-0.7,0.7-1,1.7-0.8,2.7c0.2,1,0.8,1.9,1.7,2.3C140.1,37.8,140.5,36.8,140.3,35.8z"/>
<path d="M143.6,35.2c-0.2-1-0.8-1.9-1.7-2.3c-0.7,0.7-1,1.7-0.8,2.7c0.2,1,0.8,1.9,1.7,2.3C143.5,37.2,143.8,36.2,143.6,35.2z"/>
</svg>
