<?xml version="1.0" encoding="utf-8"?>
<!-- Generator: Adobe Illustrator 21.1.0, SVG Export Plug-In . SVG Version: 6.00 Build 0)  -->
<svg version="1.1" id="Layer_1" xmlns="http://www.w3.org/2000/svg" xmlns:xlink="http://www.w3.org/1999/xlink" x="0px" y="0px"
	 viewBox="0 0 228.4 224.4" style="enable-background:new 0 0 228.4 224.4;" xml:space="preserve">
<style type="text/css">
	.st0{fill-rule:evenodd;clip-rule:evenodd;fill:url(#SVGID_1_);}
	.st1{fill-rule:evenodd;clip-rule:evenodd;fill:#FEFEFE;}
</style>
<linearGradient id="SVGID_1_" gradientUnits="userSpaceOnUse" x1="114.1921" y1="22.3695" x2="114.1921" y2="197.0759">
	<stop  offset="0" style="stop-color:#4E6ABD"/>
	<stop  offset="1" style="stop-color:#3E51A0"/>
</linearGradient>
<path class="st0" d="M56.5,9.1h115.3c24.9,0,45.4,20.5,45.4,45.4v115.3c0,25-20.4,45.5-45.4,45.5H56.5c-25,0-45.4-20.4-45.4-45.5
	V54.5C11.2,29.6,31.5,9.1,56.5,9.1L56.5,9.1z"/>
<path class="st1" d="M124.1,88.9v-10c0-4.8,3.2-5.9,5.5-5.9c2.2,0,13.9,0,13.9,0V51.7h-19.2c-21.3,0-26.1,15.8-26.1,26v11.2H85.9
	v14.9v9.9h12.5c0,28.1,0,62,0,62h24.8c0,0,0-34.3,0-62h18.4l0.8-9.8l1.5-15.1H124.1z"/>
</svg>
