<?xml version="1.0" encoding="iso-8859-1"?>
<!-- Generator: Adobe Illustrator 19.0.0, SVG Export Plug-In . SVG Version: 6.00 Build 0)  -->
<svg version="1.1" id="Capa_1" xmlns="http://www.w3.org/2000/svg" xmlns:xlink="http://www.w3.org/1999/xlink" x="0px" y="0px"
	 viewBox="0 0 512 512" style="enable-background:new 0 0 512 512;" xml:space="preserve">
<g>
	<g>
		<path  style="fill:#ffa9c2;" d="M256,369.533c-70.286,0-127.467,57.182-127.467,127.467c0,8.284,6.716,15,15,15h224.934c8.284,0,15-6.716,15-15
			C383.467,426.715,326.285,369.533,256,369.533z M159.685,482c7.237-46.647,47.672-82.467,96.315-82.467
			s89.077,35.82,96.314,82.467H159.685z"/>
	</g>
</g>
<g>
	<g>
		<path style="fill:#ffa9c2;" d="M256,176.734c-34.849,0-63.201,28.352-63.201,63.2c0,34.848,28.352,63.2,63.201,63.2c34.848,0,63.199-28.352,63.199-63.2
			C319.199,205.086,290.848,176.734,256,176.734z M256,273.133c-18.307,0-33.201-14.894-33.201-33.2s14.894-33.2,33.201-33.2
			c18.306,0,33.199,14.894,33.199,33.2C289.199,258.239,274.306,273.133,256,273.133z"/>
	</g>
</g>
<g>
	<g>
		<path  style="fill:#ffa9c2;" d="M256,0c-8.284,0-15,6.716-15,15v48.2c0,8.284,6.716,15,15,15s15-6.716,15-15V15C271,6.716,264.284,0,256,0z"/>
	</g>
</g>
<g>
	<g>
		<path style="fill:#ffa9c2;" d="M79.266,224.934h-48.2c-8.284,0-15,6.716-15,15s6.716,15,15,15h48.2c8.284,0,15-6.716,15-15
			C94.266,231.649,87.551,224.934,79.266,224.934z"/>
	</g>
</g>
<g>
	<g>
		<path style="fill:#ffa9c2;" d="M480.934,224.934h-48.201c-8.284,0-15,6.716-15,15s6.716,15,15,15h48.201c8.284,0,15-6.716,15-15
			C495.934,231.649,489.218,224.934,480.934,224.934z"/>
	</g>
</g>
<g>
	<g>
		<path style="fill:#ffa9c2;" d="M141.638,104.357l-34.082-34.083c-5.858-5.858-15.355-5.858-21.213,0c-5.858,5.857-5.858,15.354-0.001,21.213
			l34.082,34.083c2.929,2.93,6.768,4.394,10.607,4.394c3.838,0,7.678-1.465,10.606-4.394
			C147.495,119.713,147.495,110.216,141.638,104.357z"/>
	</g>
</g>
<g>
	<g>
		<path style="fill:#ffa9c2;" d="M425.66,70.274c-5.857-5.858-15.355-5.858-21.213,0l-34.084,34.083c-5.858,5.857-5.858,15.354,0,21.213
			c2.929,2.93,6.768,4.394,10.607,4.394c3.838,0,7.678-1.465,10.606-4.394l34.084-34.083
			C431.517,85.63,431.517,76.133,425.66,70.274z"/>
	</g>
</g>
<g>
</g>
<g>
</g>
<g>
</g>
<g>
</g>
<g>
</g>
<g>
</g>
<g>
</g>
<g>
</g>
<g>
</g>
<g>
</g>
<g>
</g>
<g>
</g>
<g>
</g>
<g>
</g>
<g>
</g>
</svg>
