<?xml version="1.0" encoding="utf-8"?>
<!-- Generator: Adobe Illustrator 21.1.0, SVG Export Plug-In . SVG Version: 6.00 Build 0)  -->
<svg version="1.1" id="Layer_1" xmlns="http://www.w3.org/2000/svg" xmlns:xlink="http://www.w3.org/1999/xlink" x="0px" y="0px"
	 viewBox="0 0 228.4 224.4" style="enable-background:new 0 0 228.4 224.4;" xml:space="preserve">
<style type="text/css">
	.st0{fill-rule:evenodd;clip-rule:evenodd;fill:url(#SVGID_1_);}
	.st1{fill:#FFFFFF;}
</style>
<g>
	<linearGradient id="SVGID_1_" gradientUnits="userSpaceOnUse" x1="114.1921" y1="12.6232" x2="114.1921" y2="209.4273">
		<stop  offset="0" style="stop-color:#FEC053"/>
		<stop  offset="0.3273" style="stop-color:#F2203E"/>
		<stop  offset="0.6485" style="stop-color:#B729A8"/>
		<stop  offset="1" style="stop-color:#5342D6"/>
	</linearGradient>
	<path class="st0" d="M56.5,9.1h115.4c24.9,0,45.4,20.4,45.4,45.4v115.3c0,25-20.4,45.5-45.4,45.5H56.5c-24.9,0-45.4-20.4-45.4-45.5
		V54.5C11.1,29.6,31.6,9.1,56.5,9.1L56.5,9.1z"/>
	<g>
		<g>
			<path class="st1" d="M144.4,182.4H84c-22,0-39.9-17.9-39.9-39.9V82C44,60,61.9,42.1,84,42.1h60.4c22,0,39.9,17.9,39.9,39.9v60.4
				C184.4,164.5,166.4,182.4,144.4,182.4z M84,54.1c-15.4,0-27.9,12.5-27.9,27.9v60.4c0,15.4,12.5,27.9,27.9,27.9h60.4
				c15.4,0,27.9-12.5,27.9-27.9V82c0-15.4-12.5-27.9-27.9-27.9H84z"/>
		</g>
		<g>
			<path class="st1" d="M114.2,148.1c-19.8,0-35.9-16.1-35.9-35.9c0-19.8,16.1-35.9,35.9-35.9c19.8,0,35.9,16.1,35.9,35.9
				C150.1,132,134,148.1,114.2,148.1z M114.2,88.3c-13.2,0-23.9,10.7-23.9,23.9c0,13.2,10.7,23.9,23.9,23.9
				c13.2,0,23.9-10.7,23.9-23.9C138.1,99,127.4,88.3,114.2,88.3z"/>
		</g>
		<g>
			<circle class="st1" cx="151.7" cy="74.2" r="8.6"/>
		</g>
	</g>
</g>
</svg>
