<?xml version="1.0" encoding="utf-8"?>
<!-- Generator: Adobe Illustrator 21.1.0, SVG Export Plug-In . SVG Version: 6.00 Build 0)  -->
<svg version="1.1" id="Layer_1" xmlns="http://www.w3.org/2000/svg" xmlns:xlink="http://www.w3.org/1999/xlink" x="0px" y="0px"
	 viewBox="0 0 70 32" style="enable-background:new 0 0 70 32;" xml:space="preserve">
<g>
	<path style="fill:#fff;" d="M6.7,29.7v1.7H6.2v-1.7l-1.6-2.6h0.5c0.1,0,0.1,0,0.1,0c0,0,0.1,0.1,0.1,0.1l1,1.7c0,0.1,0.1,0.1,0.1,0.2
		c0,0.1,0.1,0.1,0.1,0.2c0-0.1,0-0.1,0.1-0.2c0-0.1,0.1-0.1,0.1-0.2l1-1.7c0,0,0-0.1,0.1-0.1c0,0,0.1,0,0.1,0h0.5L6.7,29.7z"/>
	<path style="fill:#fff;" d="M12.6,29.2c0,0.3-0.1,0.6-0.2,0.9c-0.1,0.3-0.2,0.5-0.4,0.7c-0.2,0.2-0.4,0.3-0.7,0.5c-0.3,0.1-0.5,0.2-0.9,0.2
		s-0.6-0.1-0.9-0.2C9.4,31.1,9.1,31,9,30.8c-0.2-0.2-0.3-0.4-0.4-0.7c-0.1-0.3-0.2-0.6-0.2-0.9c0-0.3,0.1-0.6,0.2-0.9
		c0.1-0.3,0.2-0.5,0.4-0.7s0.4-0.3,0.7-0.5c0.3-0.1,0.5-0.2,0.9-0.2s0.6,0.1,0.9,0.2c0.3,0.1,0.5,0.3,0.7,0.5s0.3,0.4,0.4,0.7
		C12.6,28.6,12.6,28.9,12.6,29.2z M12,29.2c0-0.3,0-0.5-0.1-0.7c-0.1-0.2-0.2-0.4-0.3-0.5c-0.1-0.1-0.3-0.3-0.5-0.3
		c-0.2-0.1-0.4-0.1-0.6-0.1c-0.2,0-0.4,0-0.6,0.1c-0.2,0.1-0.3,0.2-0.5,0.3c-0.1,0.1-0.2,0.3-0.3,0.5C9,28.7,9,29,9,29.2
		c0,0.3,0,0.5,0.1,0.7c0.1,0.2,0.2,0.4,0.3,0.5c0.1,0.1,0.3,0.3,0.5,0.3s0.4,0.1,0.6,0.1c0.2,0,0.4,0,0.6-0.1s0.3-0.2,0.5-0.3
		c0.1-0.1,0.2-0.3,0.3-0.5C12,29.7,12,29.5,12,29.2z"/>
	<path style="fill:#fff;" d="M16.8,31.4h-0.5c-0.1,0-0.1,0-0.1,0c0,0-0.1-0.1-0.1-0.1l-0.4-1h-1.9l-0.4,1c0,0,0,0.1-0.1,0.1s-0.1,0-0.1,0h-0.5l1.7-4.3
		h0.6L16.8,31.4z M14,29.8h1.6L14.9,28c0-0.1-0.1-0.2-0.1-0.4c0,0.1,0,0.2-0.1,0.2s0,0.1-0.1,0.2L14,29.8z"/>
	<path style="fill:#fff;" d="M17.8,27.1C17.8,27.1,17.8,27.1,17.8,27.1l2.6,3.3c0-0.1,0-0.1,0-0.2s0-0.1,0-0.1v-3h0.5v4.3h-0.3c0,0-0.1,0-0.1,0
		c0,0-0.1,0-0.1-0.1L17.9,28c0,0,0,0.1,0,0.1s0,0.1,0,0.1v3.1h-0.5v-4.3h0.3C17.7,27.1,17.8,27.1,17.8,27.1z"/>
	<path style="fill:#fff;" d="M22.3,27.1C22.3,27.1,22.4,27.1,22.3,27.1l2.6,3.3c0-0.1,0-0.1,0-0.2s0-0.1,0-0.1v-3h0.5v4.3h-0.3c0,0-0.1,0-0.1,0
		c0,0-0.1,0-0.1-0.1L22.4,28c0,0,0,0.1,0,0.1s0,0.1,0,0.1v3.1h-0.5v-4.3h0.3C22.3,27.1,22.3,27.1,22.3,27.1z"/>
	<path style="fill:#fff;" d="M30,31.4h-0.4c-0.1,0-0.1,0-0.1,0c0,0-0.1-0.1-0.1-0.1l-0.4-1H27l-0.4,1c0,0,0,0.1-0.1,0.1c0,0-0.1,0-0.1,0h-0.5l1.7-4.3
		h0.6L30,31.4z M27.2,29.8h1.6L28.1,28c0-0.1-0.1-0.2-0.1-0.4c0,0.1,0,0.2-0.1,0.2c0,0.1,0,0.1-0.1,0.2L27.2,29.8z"/>
	<path style="fill:#fff;" d="M32.3,29h0.2c0.1,0,0.1,0,0.2,0c0,0,0.1-0.1,0.1-0.1l1.4-1.6c0,0,0.1-0.1,0.1-0.1s0.1,0,0.2,0h0.5l-1.6,1.9
		c0,0-0.1,0.1-0.1,0.1s-0.1,0.1-0.1,0.1c0.1,0,0.1,0,0.1,0.1s0.1,0.1,0.1,0.1l1.7,2h-0.5c0,0-0.1,0-0.1,0s0,0-0.1,0c0,0,0,0-0.1,0
		c0,0,0,0,0-0.1l-1.5-1.7c0,0,0,0-0.1-0.1c0,0,0,0-0.1,0c0,0-0.1,0-0.1,0c0,0-0.1,0-0.1,0h-0.3v2h-0.6v-4.3h0.6V29z"/>
	<path style="fill:#fff;" d="M39.3,31.4h-0.4c-0.1,0-0.1,0-0.1,0c0,0-0.1-0.1-0.1-0.1l-0.4-1h-1.9l-0.4,1c0,0,0,0.1-0.1,0.1c0,0-0.1,0-0.1,0h-0.5
		l1.7-4.3h0.6L39.3,31.4z M36.5,29.8h1.6L37.4,28c0-0.1-0.1-0.2-0.1-0.4c0,0.1,0,0.2-0.1,0.2c0,0.1,0,0.1-0.1,0.2L36.5,29.8z"/>
	<path style="fill:#fff;" d="M42,30c0,0.1,0,0.1,0.1,0.2c0-0.1,0-0.1,0.1-0.2s0-0.1,0.1-0.2l1.5-2.6c0,0,0.1-0.1,0.1-0.1c0,0,0.1,0,0.1,0h0.4v4.3h-0.5
		v-3.2c0,0,0-0.1,0-0.1s0-0.1,0-0.1l-1.5,2.7c-0.1,0.1-0.1,0.1-0.2,0.1H42c-0.1,0-0.2,0-0.2-0.1l-1.5-2.7c0,0.1,0,0.1,0,0.2
		s0,0.1,0,0.1v3.2h-0.5v-4.3h0.4c0.1,0,0.1,0,0.1,0c0,0,0.1,0,0.1,0.1l1.5,2.6C42,29.9,42,29.9,42,30z"/>
	<path style="fill:#fff;" d="M48,27.1v0.5h-2.1V29h1.7v0.5h-1.7v1.5H48v0.5h-2.6v-4.3H48z"/>
	<path style="fill:#fff;" d="M49.3,27.1C49.3,27.1,49.3,27.1,49.3,27.1l2.6,3.3c0-0.1,0-0.1,0-0.2s0-0.1,0-0.1v-3h0.5v4.3H52c0,0-0.1,0-0.1,0
		c0,0-0.1,0-0.1-0.1L49.3,28c0,0,0,0.1,0,0.1s0,0.1,0,0.1v3.1h-0.5v-4.3h0.3C49.2,27.1,49.2,27.1,49.3,27.1z"/>
	<path style="fill:#fff;" d="M57.4,29.2c0,0.3-0.1,0.6-0.2,0.9c-0.1,0.3-0.2,0.5-0.4,0.7c-0.2,0.2-0.4,0.3-0.7,0.5c-0.3,0.1-0.5,0.2-0.9,0.2
		c-0.3,0-0.6-0.1-0.9-0.2c-0.3-0.1-0.5-0.3-0.7-0.5c-0.2-0.2-0.3-0.4-0.4-0.7c-0.1-0.3-0.2-0.6-0.2-0.9c0-0.3,0.1-0.6,0.2-0.9
		c0.1-0.3,0.2-0.5,0.4-0.7c0.2-0.2,0.4-0.3,0.7-0.5c0.3-0.1,0.5-0.2,0.9-0.2c0.3,0,0.6,0.1,0.9,0.2c0.3,0.1,0.5,0.3,0.7,0.5
		c0.2,0.2,0.3,0.4,0.4,0.7C57.3,28.6,57.4,28.9,57.4,29.2z M56.8,29.2c0-0.3,0-0.5-0.1-0.7c-0.1-0.2-0.2-0.4-0.3-0.5
		c-0.1-0.1-0.3-0.3-0.5-0.3c-0.2-0.1-0.4-0.1-0.6-0.1c-0.2,0-0.4,0-0.6,0.1c-0.2,0.1-0.3,0.2-0.5,0.3c-0.1,0.1-0.2,0.3-0.3,0.5
		c-0.1,0.2-0.1,0.4-0.1,0.7c0,0.3,0,0.5,0.1,0.7c0.1,0.2,0.2,0.4,0.3,0.5c0.1,0.1,0.3,0.3,0.5,0.3c0.2,0.1,0.4,0.1,0.6,0.1
		c0.2,0,0.4,0,0.6-0.1c0.2-0.1,0.3-0.2,0.5-0.3c0.1-0.1,0.2-0.3,0.3-0.5C56.7,29.7,56.8,29.5,56.8,29.2z"/>
	<path style="fill:#fff;" d="M57.5,27.1H58c0.1,0,0.1,0,0.1,0c0,0,0.1,0.1,0.1,0.1l1.2,3c0,0.1,0.1,0.1,0.1,0.2s0,0.2,0.1,0.2c0-0.1,0-0.2,0.1-0.2
		c0-0.1,0-0.2,0.1-0.2l1.2-3c0,0,0-0.1,0.1-0.1s0.1,0,0.1,0h0.5l-1.8,4.3h-0.5L57.5,27.1z"/>
	<path style="fill:#fff;" d="M65.2,31.4h-0.4c-0.1,0-0.1,0-0.1,0c0,0-0.1-0.1-0.1-0.1l-0.4-1h-1.9l-0.4,1c0,0,0,0.1-0.1,0.1c0,0-0.1,0-0.1,0h-0.5
		l1.7-4.3h0.6L65.2,31.4z M62.4,29.8H64L63.3,28c0-0.1-0.1-0.2-0.1-0.4c0,0.1,0,0.2-0.1,0.2c0,0.1,0,0.1-0.1,0.2L62.4,29.8z"/>
</g>
<g>
	<path style="fill:#fff;" d="M21.7,10.9L21.7,10.9c0.1-0.3,0.1-0.8,0.2-1c0.2-0.7,0.3-1.3,0.6-2c0.4-1.2,0.9-2.4,1.4-3.6c0.1-0.3,0.4-0.5,0.5-0.7
		c0.2-0.2,0.3-0.5,0.4-0.8c0.2-0.4,0.5-1.2,0.9-1.3c0.5-0.2,1,0.3,1.3,0.6c0.3,0.5,0.3,0.7,0,1.1c0,0,0.1-0.1,0.1-0.1
		c0,0.2-0.7,1.2-0.8,1.2c0,0,0.3-0.5,0.3-0.6c-0.4,0.7-0.8,1.3-1.1,2c0-0.1,0.1-0.1,0.1-0.1c-0.1,0.1-0.8,2-0.9,2.2
		c-0.7,1.7-1.2,3.5-1.4,5.4c0,0.4-0.2,1.3,0.5,1.2c0.5-0.1,0.9-0.7,1.2-1.1c1.1-1.3,2.2-2.5,3.2-3.9c0,0-0.3,0.3-0.3,0.3
		c-0.1-0.2,0.3-0.6,0.4-0.8c0.3-0.3,0.5-0.7,0.7-1l1.9-3C31.4,4.4,31.7,4,32,3.5c0.2-0.3,0.3-0.6,0.7-0.6c0.5,0,1.2,0.5,1.4,1.1
		c0,0,0,0,0,0c0,0,0,0,0,0h0c0,0,0,0,0,0l0,0c0.2,0.9-0.8,2-1.1,2.8c-0.2,0.6-0.3,1.2-0.5,1.8c-0.3,0.7-0.5,1.3-0.8,2l-1.6,4
		c-0.5,1.2-0.9,2.5-1.4,3.7c-1,2.1-2,4.4-3.5,6.3c-1.2,1.4-3.5,0.4-4.2-1.1c-0.9-2,1-4,2.3-5.3c0.2-0.1,1.6-1.6,1.7-1.1
		c0,0.2-0.3,0.6-0.4,0.7c-0.3,0.3-0.5,0.7-0.7,1c-0.5,0.8-0.9,1.7-1.2,2.6c-0.2,0.6-0.5,1.4-0.3,2c0.3,0.7,1,0.4,1.5,0
		c0.6-0.6,1-1.4,1.3-2.1c2.2-4.3,3.7-8.9,5.3-13.5c-0.9,1.5-1.7,2.9-2.7,4.3c-0.4,0.6-0.9,1.2-1.4,1.7c-0.2,0.2-0.4,0.4-0.6,0.6
		c-0.1,0.1-0.2,0.4-0.4,0.4l0.1-0.2c-0.1,0.1-0.1,0.1-0.2,0.2c0,0,0,0,0.1,0c-0.1,0.6-1.1,0.9-1.6,0.8c-0.7-0.2-1.5-0.8-2-1.3
		c-0.4-0.5-0.5-1.1-0.5-1.7c0-0.1,0-1.2,0.2-1.2c0,0,0,0.3,0,0.3C21.6,11.6,21.7,11.3,21.7,10.9c0,0.1,0,0.1-0.1,0.1L21.7,10.9z
		 M23.3,6.9c0,0,0.7-1.3,0.7-1.3c0.6-1.6,0.9-2,1.6-3.3c-0.5,0.8-1.1,1.7-1.4,2.5c-0.4,0.9-0.8,1.8-1.1,2.7
		C23.1,7.4,23.2,7.1,23.3,6.9z M29.3,15.6c-0.1,0.2-0.5,0.8-0.6,1c-0.3,0.7-0.3,1.1-0.6,1.7C28.5,17.4,28.9,16.5,29.3,15.6z
		 M34.2,4.1L34.2,4.1L34.2,4.1L34.2,4.1z"/>
	<path style="fill:#fff;" d="M35.4,18.2c-0.1,0.3-0.4,0.4-0.7,0.7c-0.3,0.2-0.5,0.5-0.9,0.3c-0.1-0.1-0.5-0.4-0.6-0.6c-0.3-0.6,0.5-1.5,1-1.7
		c0.4-0.2,0.8-0.3,1.2-0.1c0.1,0,0.1-0.1,0.2,0.1c0.1,0.2,0,0.4,0,0.5C36,17.3,35.5,18.1,35.4,18.2z"/>
	<path style="fill:#fff;" d="M50.8,18.2c0,0.3,0,0.4-0.2,0.6c-0.6,0.9-1.4,2-2.6,2.2c-0.5,0.1-0.9,0-1.3-0.2c-0.1-0.1-1.2-0.9-1.2-1c0,0,0,0,0.1,0
		c0,0-0.1-0.1-0.1-0.1c0.1,0.1-0.2-0.1-0.3-0.1c-0.2-0.1-0.3-0.3-0.4-0.4c-0.2-0.3-0.5-0.5-0.7-0.7c-0.1-0.1-1.1-1.2-0.9-1.4
		c0,0,0.1,0.1,0.1,0.1l-0.3-0.3v0c0,0.1-1.3-1.9-1.4-2.1c-0.2-0.3-0.5-0.7-0.6-1.1c0-0.1,0-0.1,0.1-0.1c0-0.1-0.1-0.1-0.2-0.2
		l-0.4-0.7c-0.2,0.6-0.2,1.2-0.4,1.8c-0.3,0.9-0.5,1.8-0.7,2.7l-0.3,1.1c-0.1,0.3,0,0.7-0.2,1c-0.3,0.5-1-0.3-1.2-0.6
		c-0.6-0.8-0.2-1.8,0-2.7c0.2-0.8,0.4-1.6,0.7-2.4c0.2-0.6,0.3-1.2,0.5-1.8c0.5-1.6,1-3.2,1.6-4.8c0.5-1.4,0.9-2.8,1.5-4.2
		c0.1-0.3,0.2-0.6,0.4-0.9l0.1-0.4c0,0,0-0.1,0-0.1c0.3-0.5,1.1-0.3,1.4,0c0.7,0.5,0.1,1-0.1,1.6c-0.1,0.2,0,0.4-0.1,0.6
		c-0.1,0.4-0.4,0.9-0.5,1.3c-0.2,0.6-0.4,1.2-0.7,1.8l-0.4,0.9C42.1,8,42,8.3,42,8.6c-0.1,0.7-0.5,1.3-0.7,1.9c1-0.8,2-1.6,2.9-2.5
		c0.9-1,1.9-1.8,2.8-2.9c0.8-1,1.8-2.2,2.2-3.4c0.1-0.2,0-0.5,0.3-0.4c0.4,0.1,0.8,0.9,0.9,1.3v0C50.5,3.6,50,4.3,49.5,5
		c-0.4,0.5-0.8,1-1.3,1.4c-0.2,0.2-0.3,0.5-0.5,0.7c-0.2,0.3-0.5,0.5-0.7,0.7c-0.5,0.4-0.9,0.9-1.4,1.3c-0.3,0.3-0.6,0.6-0.9,0.9
		c-0.9,0.8-2,1.6-3.1,2.1c0.5,0.8,0.9,1.5,1.5,2.2c-0.2-0.3-0.5-0.7-0.7-1.1c0.7,0.9,2.2,2.7,2.4,2.9c0.5,0.5,1.1,1,1.6,1.5
		c0.4,0.4,0.8,0.8,1.2,1.1l-0.1-0.1c0,0,0.8,0.3,0.9,0.4c0.2,0.1,0.4,0.1,0.6,0.1c0.5-0.1,1.2-0.5,1.5-0.9
		C50.6,18,50.8,17.7,50.8,18.2z M39.9,10.8c-0.5,1.7-1,3.4-1.4,5.1c0.2-0.7,0.5-1.3,0.7-2c0.3-0.9,0.4-1.8,0.6-2.6c0,0,0,0,0-0.1
		L39.9,10.8z M42,12.8l0.1,0.2C42.1,12.9,42,12.9,42,12.8z M42.1,13.1l0.1,0.1L42.1,13.1z M43.6,15.1c0.1,0.2,0.3,0.4,0.5,0.6
		l-0.4-0.4L43.6,15.1z"/>
</g>
</svg>
