<?xml version="1.0" encoding="utf-8"?>
<!-- Generator: Adobe Illustrator 21.1.0, SVG Export Plug-In . SVG Version: 6.00 Build 0)  -->
<svg version="1.1" id="Layer_1" xmlns="http://www.w3.org/2000/svg" xmlns:xlink="http://www.w3.org/1999/xlink" x="0px" y="0px"
	 viewBox="0 0 228.4 224.4" style="enable-background:new 0 0 228.4 224.4;" xml:space="preserve">
<style type="text/css">
	.st0{fill-rule:evenodd;clip-rule:evenodd;fill:url(#SVGID_1_);}
	.st1{fill-rule:evenodd;clip-rule:evenodd;fill:#FEFEFE;}
</style>
<linearGradient id="SVGID_1_" gradientUnits="userSpaceOnUse" x1="114.1921" y1="6.8695" x2="114.1921" y2="203.9097">
	<stop  offset="0" style="stop-color:#49BD60"/>
	<stop  offset="1" style="stop-color:#44A05E"/>
</linearGradient>
<path class="st0" d="M56.5,9.1h115.3c25,0,45.4,20.5,45.4,45.4v115.3c0,25-20.3,45.5-45.4,45.5H56.5c-25,0-45.4-20.4-45.4-45.5V54.5
	C11.2,29.6,31.5,9.1,56.5,9.1L56.5,9.1z"/>
<path class="st1" d="M115.3,158.4c-10.4,0-20-3.1-28.1-8.4l-19.6,6.2l6.3-18.9c-6.1-8.3-9.8-18.7-9.8-29.8c0-1.7,0.1-3.2,0.3-4.9
	c2.5-25.7,24.4-45.9,50.9-45.9c26.9,0,49,20.7,51.1,46.8c0.1,1.4,0.1,2.7,0.1,3.9C166.5,135.6,143.5,158.4,115.3,158.4L115.3,158.4z
	 M143.2,119.8c-1.6-0.7-8.8-4.4-10.2-4.9c-1.5-0.4-2.4-0.7-3.4,0.8c-0.9,1.5-3.8,4.8-4.7,5.7c-0.9,1-1.8,1.1-3.2,0.4
	c-1.6-0.7-6.3-2.3-12-7.4c-4.5-3.9-7.5-8.7-8.3-10.2c-0.8-1.6-0.1-2.3,0.6-3.1c0.7-0.6,1.6-1.7,2.3-2.6c0.2-0.2,0.4-0.4,0.5-0.6
	c0.4-0.6,0.6-1.1,0.9-1.8c0.5-1,0.3-1.9-0.1-2.6c-0.3-0.7-3.3-8.1-4.6-11c-1.2-3-2.5-2.5-3.3-2.5c-0.9,0-1.9-0.1-2.9-0.1
	c-1,0-2.6,0.3-3.9,1.9c-1.5,1.5-5.3,5-5.3,12.4c0,1.7,0.3,3.4,0.8,5c1.5,5.3,4.8,9.5,5.3,10.3c0.7,1,10.3,16.4,25.4,22.3
	c15.3,5.9,15.3,3.9,18,3.7c2.7-0.2,8.8-3.5,10.1-7.1c1.2-3.4,1.2-6.4,0.8-7.1C145.7,120.9,144.7,120.5,143.2,119.8L143.2,119.8z
	 M176.1,106.1c-0.8-32.7-27.7-58.9-60.8-58.9c-32.7,0-59.4,25.5-60.7,57.7c-0.1,0.8-0.1,1.8-0.1,2.6c0,11.4,3.2,22.1,8.7,31.2
	l-11,32.4l33.7-10.7c8.7,4.8,18.8,7.5,29.4,7.5c33.6,0,60.9-27,60.9-60.4C176.2,107,176.1,106.6,176.1,106.1L176.1,106.1z"/>
</svg>
